<svg width="30" height="30" viewBox="0 0 30 30" fill="none" xmlns="http://www.w3.org/2000/svg">
<circle cx="15" cy="15" r="15" fill="#F5F5F5"/>
<g clip-path="url(#clip0_3_135)">
<path d="M12.8333 23.0223C8.66667 24.2723 8.66667 20.939 7 20.5223M18.6667 25.5223V22.2973C18.6979 21.9 18.6442 21.5005 18.5092 21.1255C18.3741 20.7505 18.1608 20.4085 17.8833 20.1223C20.5 19.8307 23.25 18.839 23.25 14.289C23.2498 13.1255 22.8022 12.0067 22 11.164C22.3799 10.1461 22.353 9.02095 21.925 8.02233C21.925 8.02233 20.9417 7.73066 18.6667 9.25566C16.7567 8.73801 14.7433 8.73801 12.8333 9.25566C10.5583 7.73066 9.575 8.02233 9.575 8.02233C9.14698 9.02095 9.12012 10.1461 9.5 11.164C8.69177 12.0129 8.24377 13.1419 8.25 14.314C8.25 18.8307 11 19.8223 13.6167 20.1473C13.3425 20.4306 13.1311 20.7685 12.9961 21.1389C12.8611 21.5094 12.8057 21.904 12.8333 22.2973V25.5223" stroke="#B6A0C9" stroke-width="2" stroke-linecap="round" stroke-linejoin="round"/>
</g>
<defs>
<clipPath id="clip0_3_135">
<rect width="22" height="22" fill="white" transform="translate(4 4)"/>
</clipPath>
</defs>
</svg>
