<svg width="20" height="20" viewBox="0 0 20 20" fill="none" xmlns="http://www.w3.org/2000/svg">
<g clip-path="url(#clip0_5_247)">
<path d="M16.2033 3.9584C15.7883 3.60999 15.3087 3.34677 14.7919 3.18377C14.2752 3.02077 13.7314 2.96118 13.1915 3.0084C12.6517 3.05563 12.1265 3.20875 11.6459 3.45901C11.1653 3.70927 10.7387 4.05177 10.3905 4.46695L9.66782 5.32821L8.80656 4.60553C7.96829 3.90214 6.88495 3.56056 5.79484 3.65593C4.70472 3.75131 3.69715 4.27582 2.99376 5.11408C2.29038 5.95234 1.9488 7.03569 2.04417 8.1258C2.13954 9.21591 2.66405 10.2235 3.50232 10.9269L10.6849 16.9538L16.7119 9.77119C17.0603 9.35618 17.3235 8.87659 17.4865 8.35982C17.6495 7.84306 17.7091 7.29924 17.6619 6.75943C17.6146 6.21963 17.4615 5.69442 17.2112 5.21381C16.961 4.7332 16.6185 4.3066 16.2033 3.9584Z" stroke="#4C403A" stroke-width="2" stroke-linecap="round" stroke-linejoin="round"/>
</g>
<defs>
<clipPath id="clip0_5_247">
<rect width="18" height="18" fill="white" transform="translate(0.331436 1.87634) rotate(-5)"/>
</clipPath>
</defs>
</svg>
