<svg width="30" height="30" viewBox="0 0 30 30" fill="none" xmlns="http://www.w3.org/2000/svg">
<circle cx="15" cy="15" r="15" fill="#F5F5F5"/>
<path d="M18.3334 12.6666C19.4606 12.6666 20.5416 13.1144 21.3386 13.9114C22.1356 14.7085 22.5834 15.7895 22.5834 16.9166V21.875H19.7501V16.9166C19.7501 16.5409 19.6008 16.1806 19.3351 15.9149C19.0695 15.6492 18.7091 15.5 18.3334 15.5C17.9577 15.5 17.5974 15.6492 17.3317 15.9149C17.066 16.1806 16.9167 16.5409 16.9167 16.9166V21.875H14.0834V16.9166C14.0834 15.7895 14.5312 14.7085 15.3282 13.9114C16.1252 13.1144 17.2062 12.6666 18.3334 12.6666Z" fill="#B6A0C9"/>
<path d="M11.2501 13.375H8.41675V21.875H11.2501V13.375Z" fill="#B6A0C9"/>
<path d="M9.83341 11.25C10.6158 11.25 11.2501 10.6157 11.2501 9.83329C11.2501 9.05089 10.6158 8.41663 9.83341 8.41663C9.05101 8.41663 8.41675 9.05089 8.41675 9.83329C8.41675 10.6157 9.05101 11.25 9.83341 11.25Z" fill="#B6A0C9"/>
<path d="M18.3334 12.6666C19.4606 12.6666 20.5416 13.1144 21.3386 13.9114C22.1356 14.7085 22.5834 15.7895 22.5834 16.9166V21.875H19.7501V16.9166C19.7501 16.5409 19.6008 16.1806 19.3351 15.9149C19.0695 15.6492 18.7091 15.5 18.3334 15.5C17.9577 15.5 17.5974 15.6492 17.3317 15.9149C17.066 16.1806 16.9167 16.5409 16.9167 16.9166V21.875H14.0834V16.9166C14.0834 15.7895 14.5312 14.7085 15.3282 13.9114C16.1252 13.1144 17.2062 12.6666 18.3334 12.6666Z" stroke="#B6A0C9" stroke-width="0.5" stroke-linecap="round" stroke-linejoin="round"/>
<path d="M11.2501 13.375H8.41675V21.875H11.2501V13.375Z" stroke="#B6A0C9" stroke-width="0.5" stroke-linecap="round" stroke-linejoin="round"/>
<path d="M9.83341 11.25C10.6158 11.25 11.2501 10.6157 11.2501 9.83329C11.2501 9.05089 10.6158 8.41663 9.83341 8.41663C9.05101 8.41663 8.41675 9.05089 8.41675 9.83329C8.41675 10.6157 9.05101 11.25 9.83341 11.25Z" stroke="#B6A0C9" stroke-width="0.5" stroke-linecap="round" stroke-linejoin="round"/>
</svg>
