<svg width="30" height="30" viewBox="0 0 30 30" fill="none" xmlns="http://www.w3.org/2000/svg">
<circle cx="15" cy="15" r="15" fill="#F5F5F5"/>
<path d="M16.6666 6.66663H9.99992C9.55789 6.66663 9.13397 6.84222 8.82141 7.15478C8.50885 7.46734 8.33325 7.89127 8.33325 8.33329V21.6666C8.33325 22.1087 8.50885 22.5326 8.82141 22.8451C9.13397 23.1577 9.55789 23.3333 9.99992 23.3333H19.9999C20.4419 23.3333 20.8659 23.1577 21.1784 22.8451C21.491 22.5326 21.6666 22.1087 21.6666 21.6666V11.6666M16.6666 6.66663L21.6666 11.6666M16.6666 6.66663V11.6666H21.6666M18.3333 15.8333H11.6666M18.3333 19.1666H11.6666M13.3333 12.5H11.6666" stroke="#B6A0C9" stroke-width="1.8" stroke-linecap="round" stroke-linejoin="round"/>
</svg>
