<svg width="208" height="210" viewBox="0 0 208 210" fill="none" xmlns="http://www.w3.org/2000/svg">
<circle cx="104" cy="104.822" r="104" fill="#F5F5F5"/>
<path d="M48.6895 46.3946C47.0016 52.3671 44.6386 66.3376 48.6895 74.4395C35.9135 85.6575 36.3549 104.822 38.1727 113.001C40.9771 132.633 50.7669 141.695 55.3112 143.773C65.5943 150.628 79.3312 152.861 84.9142 153.121C79.6168 157.172 78.5521 164.157 78.682 167.144C70.5801 170.883 61.2837 169.481 57.6483 168.312C53.2857 166.443 50.8967 163.119 50.2475 161.69C46.8198 150.161 34.0178 147.538 28.0453 147.668C26.4872 148.291 27.9154 150.524 28.8243 151.563C30.0708 153.121 32.2001 154.549 33.109 155.069C37.7831 158.185 42.0678 166.754 43.6258 170.649C45.4955 177.505 53.7532 180.777 57.6483 181.556C64.8153 183.425 74.1377 182.594 77.903 181.945V201.421V205.52C100.339 212.375 122.307 208.146 130.487 205.419V203.368C131.526 189.735 131.5 160.6 123.087 153.121C133.993 152.472 157.909 146.266 166.322 126.634C170.347 114.949 174.658 88.1504 159.701 74.4395C161.648 69.3758 164.063 56.6777 158.143 46.3946C155.027 45.7454 145.133 47.0178 130.487 57.3009C121.528 54.5743 98.4693 50.7571 77.903 57.3009C72.9692 53.0163 60.2191 44.8365 48.6895 46.3946Z" fill="#E76D83"/>
</svg>
