<svg width="285" height="285" viewBox="0 0 285 285" fill="none" xmlns="http://www.w3.org/2000/svg">
<path d="M225.625 0H59.375C26.5881 0 0 26.5881 0 59.375V225.625C0 258.412 26.5881 285 59.375 285H225.625C258.424 285 285 258.412 285 225.625V59.375C285 26.5881 258.424 0 225.625 0ZM95 225.625H59.375V95H95V225.625ZM77.1875 79.9425C65.7162 79.9425 56.4062 70.5612 56.4062 58.995C56.4062 47.4287 65.7162 38.0475 77.1875 38.0475C88.6588 38.0475 97.9688 47.4287 97.9688 58.995C97.9688 70.5612 88.6706 79.9425 77.1875 79.9425ZM237.5 225.625H201.875V159.077C201.875 119.082 154.375 122.111 154.375 159.077V225.625H118.75V95H154.375V115.959C170.952 85.2506 237.5 82.9825 237.5 145.362V225.625Z" fill="#F5F3F0"/>
</svg>
